<svg >
        <symbol viewBox="0 0 24 24" id="genre" xmlns="http://www.w3.org/2000/svg">
            <path
                d="M7 11.5C4.51472 11.5 2.5 9.48528 2.5 7C2.5 4.51472 4.51472 2.5 7 2.5C9.48528 2.5 11.5 4.51472 11.5 7C11.5 9.48528 9.48528 11.5 7 11.5ZM7 21.5C4.51472 21.5 2.5 19.4853 2.5 17C2.5 14.5147 4.51472 12.5 7 12.5C9.48528 12.5 11.5 14.5147 11.5 17C11.5 19.4853 9.48528 21.5 7 21.5ZM17 11.5C14.5147 11.5 12.5 9.48528 12.5 7C12.5 4.51472 14.5147 2.5 17 2.5C19.4853 2.5 21.5 4.51472 21.5 7C21.5 9.48528 19.4853 11.5 17 11.5ZM17 21.5C14.5147 21.5 12.5 19.4853 12.5 17C12.5 14.5147 14.5147 12.5 17 12.5C19.4853 12.5 21.5 14.5147 21.5 17C21.5 19.4853 19.4853 21.5 17 21.5ZM7 9.5C8.38071 9.5 9.5 8.38071 9.5 7C9.5 5.61929 8.38071 4.5 7 4.5C5.61929 4.5 4.5 5.61929 4.5 7C4.5 8.38071 5.61929 9.5 7 9.5ZM7 19.5C8.38071 19.5 9.5 18.3807 9.5 17C9.5 15.6193 8.38071 14.5 7 14.5C5.61929 14.5 4.5 15.6193 4.5 17C4.5 18.3807 5.61929 19.5 7 19.5ZM17 9.5C18.3807 9.5 19.5 8.38071 19.5 7C19.5 5.61929 18.3807 4.5 17 4.5C15.6193 4.5 14.5 5.61929 14.5 7C14.5 8.38071 15.6193 9.5 17 9.5ZM17 19.5C18.3807 19.5 19.5 18.3807 19.5 17C19.5 15.6193 18.3807 14.5 17 14.5C15.6193 14.5 14.5 15.6193 14.5 17C14.5 18.3807 15.6193 19.5 17 19.5Z" />
        </symbol>
        <symbol viewBox="0 0 24 24" id="login" xmlns="http://www.w3.org/2000/svg">
            <path
                d="M4 22C4 17.5817 7.58172 14 12 14C16.4183 14 20 17.5817 20 22H18C18 18.6863 15.3137 16 12 16C8.68629 16 6 18.6863 6 22H4ZM12 13C8.685 13 6 10.315 6 7C6 3.685 8.685 1 12 1C15.315 1 18 3.685 18 7C18 10.315 15.315 13 12 13ZM12 11C14.21 11 16 9.21 16 7C16 4.79 14.21 3 12 3C9.79 3 8 4.79 8 7C8 9.21 9.79 11 12 11Z" />
        </symbol>

        <symbol viewBox="0 0 24 24" id="login-second" xmlns="http://www.w3.org/2000/svg">
            <path
                d="M4 22C4 17.5817 7.58172 14 12 14C16.4183 14 20 17.5817 20 22H4ZM12 13C8.685 13 6 10.315 6 7C6 3.685 8.685 1 12 1C15.315 1 18 3.685 18 7C18 10.315 15.315 13 12 13Z" />
        </symbol>

        <symbol viewBox="0 0 24 24" id="cross" xmlns="http://www.w3.org/2000/svg">
            <path
                d="M10.5859 12L2.79297 4.20706L4.20718 2.79285L12.0001 10.5857L19.793 2.79285L21.2072 4.20706L13.4143 12L21.2072 19.7928L19.793 21.2071L12.0001 13.4142L4.20718 21.2071L2.79297 19.7928L10.5859 12Z" />
        </symbol>

        <symbol viewBox="0 0 24 24" id="cross-small" xmlns="http://www.w3.org/2000/svg">
            <path
                d="M11.9987 10.5865L16.9485 5.63672L18.3627 7.05093L13.4129 12.0007L18.3627 16.9504L16.9485 18.3646L11.9987 13.4149L7.04899 18.3646L5.63477 16.9504L10.5845 12.0007L5.63477 7.05093L7.04899 5.63672L11.9987 10.5865Z" />
        </symbol>

        <symbol viewBox="0 0 24 24" id="search" xmlns="http://www.w3.org/2000/svg">
            <path
                d="M18.031 16.6168L22.3137 20.8995L20.8995 22.3137L16.6168 18.031C15.0769 19.263 13.124 20 11 20C6.032 20 2 15.968 2 11C2 6.032 6.032 2 11 2C15.968 2 20 6.032 20 11C20 13.124 19.263 15.0769 18.031 16.6168ZM16.0247 15.8748C17.2475 14.6146 18 12.8956 18 11C18 7.1325 14.8675 4 11 4C7.1325 4 4 7.1325 4 11C4 14.8675 7.1325 18 11 18C12.8956 18 14.6146 17.2475 15.8748 16.0247L16.0247 15.8748Z" />
        </symbol>


        <symbol viewBox="0 0 24 24" id="star" xmlns="http://www.w3.org/2000/svg">
            <path
                d="M12.0006 18.26L4.94715 22.2082L6.52248 14.2799L0.587891 8.7918L8.61493 7.84006L12.0006 0.5L15.3862 7.84006L23.4132 8.7918L17.4787 14.2799L19.054 22.2082L12.0006 18.26Z" />
        </symbol>

        <symbol viewBox="0 0 24 24" id="email" xmlns="http://www.w3.org/2000/svg">
            <path
                d="M21 3C21.5523 3 22 3.44772 22 4V20.0066C22 20.5552 21.5447 21 21.0082 21H2.9918C2.44405 21 2 20.5551 2 20.0066V19H20V7.3L12 14.5L2 5.5V4C2 3.44772 2.44772 3 3 3H21ZM8 15V17H0V15H8ZM5 10V12H0V10H5ZM19.5659 5H4.43414L12 11.8093L19.5659 5Z" />
        </symbol>

        <symbol viewBox="0 0 24 24" id="password" xmlns="http://www.w3.org/2000/svg">
			<path d="M12.917 13C12.441 15.8377 9.973 18 7 18C3.68629 18 1 15.3137 1 12C1 8.68629 3.68629 6 7 6C9.973 6 12.441 8.16229 12.917 11H23V13H21V17H19V13H17V17H15V13H12.917ZM7 16C9.20914 16 11 14.2091 11 12C11 9.79086 9.20914 8 7 8C4.79086 8 3 9.79086 3 12C3 14.2091 4.79086 16 7 16Z"/>
        </symbol>

        <symbol viewBox="0 0 24 24" id="like" xmlns="http://www.w3.org/2000/svg">
            <path
                d="M16.5 3C19.5376 3 22 5.5 22 9C22 16 14.5 20 12 21.5C9.5 20 2 16 2 9C2 5.5 4.5 3 7.5 3C9.35997 3 11 4 12 5C13 4 14.64 3 16.5 3ZM12.9339 18.6038C13.8155 18.0485 14.61 17.4955 15.3549 16.9029C18.3337 14.533 20 11.9435 20 9C20 6.64076 18.463 5 16.5 5C15.4241 5 14.2593 5.56911 13.4142 6.41421L12 7.82843L10.5858 6.41421C9.74068 5.56911 8.5759 5 7.5 5C5.55906 5 4 6.6565 4 9C4 11.9435 5.66627 14.533 8.64514 16.9029C9.39 17.4955 10.1845 18.0485 11.0661 18.6038C11.3646 18.7919 11.6611 18.9729 12 19.1752C12.3389 18.9729 12.6354 18.7919 12.9339 18.6038Z" />
        </symbol>

        <symbol viewBox="0 0 24 24" id="like-second" xmlns="http://www.w3.org/2000/svg">
            <path
                d="M16.5 3C19.5376 3 22 5.5 22 9C22 16 14.5 20 12 21.5C9.5 20 2 16 2 9C2 5.5 4.5 3 7.5 3C9.35997 3 11 4 12 5C13 4 14.64 3 16.5 3Z" />
        </symbol>

        <symbol viewBox="0 0 24 24" id="random" xmlns="http://www.w3.org/2000/svg">
            <path
                d="M12 4C14.7486 4 17.1749 5.38626 18.6156 7.5H16V9.5H22V3.5H20V5.99936C18.1762 3.57166 15.2724 2 12 2C6.47715 2 2 6.47715 2 12H4C4 7.58172 7.58172 4 12 4ZM20 12C20 16.4183 16.4183 20 12 20C9.25144 20 6.82508 18.6137 5.38443 16.5H8V14.5H2V20.5H4V18.0006C5.82381 20.4283 8.72764 22 12 22C17.5228 22 22 17.5228 22 12H20Z" />
        </symbol>

        <symbol viewBox="0 0 24 24" id="copyright" xmlns="http://www.w3.org/2000/svg">
            <path
                d="M16.2877 9.42773C15.413 7.97351 13.8195 7 12 7C9.23999 7 7 9.23999 7 12C7 14.76 9.23999 17 12 17C13.8195 17 15.413 16.0265 16.2877 14.5723L14.5729 13.5442C14.0483 14.4166 13.0927 15 12 15C10.3425 15 9 13.6575 9 12C9 10.3425 10.3425 9 12 9C13.093 9 14.0491 9.58386 14.5735 10.4568L16.2877 9.42773ZM22 12C22 6.47998 17.52 2 12 2C6.47998 2 2 6.47998 2 12C2 17.52 6.47998 22 12 22C17.52 22 22 17.52 22 12ZM4 12C4 7.57996 7.57996 4 12 4C16.42 4 20 7.57996 20 12C20 16.42 16.42 20 12 20C7.57996 20 4 16.42 4 12Z"
                fill-opacity="0.7" />
        </symbol>

        <symbol viewBox="0 0 36 36" id="vk" xmlns="http://www.w3.org/2000/svg">
            <path fill-rule="evenodd" clip-rule="evenodd"
                d="M26.4865 14.3797C26.6253 13.9851 26.4865 13.6981 25.8719 13.6981H23.8298C23.3144 13.6981 23.0764 13.9492 22.9377 14.2183C22.9377 14.2183 21.8869 16.5141 20.4198 18.0027C19.9439 18.4332 19.7259 18.5767 19.4682 18.5767C19.3293 18.5767 19.1509 18.4332 19.1509 18.0386V14.3617C19.1509 13.8954 18.9923 13.6802 18.5561 13.6802H15.3444C15.0271 13.6802 14.8289 13.8954 14.8289 14.1106C14.8289 14.5591 15.5624 14.6667 15.6417 15.9222V18.6484C15.6417 19.2403 15.5228 19.3479 15.2651 19.3479C14.5711 19.3479 12.886 17.0342 11.8748 14.3976C11.6765 13.8775 11.4783 13.6802 10.9629 13.6802H8.90093C8.30617 13.6802 8.20703 13.9313 8.20703 14.2003C8.20703 14.6846 8.90093 17.1239 11.4386 20.3524C13.1239 22.5585 15.5228 23.7422 17.6838 23.7422C18.9923 23.7422 19.1509 23.4732 19.1509 23.0248V21.3568C19.1509 20.8187 19.2699 20.729 19.6862 20.729C19.9836 20.729 20.5189 20.8725 21.7283 21.9307C23.1161 23.1862 23.354 23.7602 24.1272 23.7602H26.1693C26.764 23.7602 27.0416 23.4911 26.883 22.971C26.7046 22.4509 26.0305 21.6976 25.1582 20.8007C24.6823 20.2986 23.9686 19.7426 23.7505 19.4735C23.4531 19.1148 23.5324 18.9713 23.7505 18.6484C23.7307 18.6484 26.2287 15.4559 26.4865 14.3797Z"
                fill-opacity="0.8" />
        </symbol>

        <symbol viewBox="0 0 36 36" id="youtube" xmlns="http://www.w3.org/2000/svg">
            <path fill-rule="evenodd" clip-rule="evenodd"
                d="M24.0013 13.0496C24.6622 13.2309 25.1827 13.7653 25.3593 14.4439C25.6803 15.6738 25.6803 18.24 25.6803 18.24C25.6803 18.24 25.6803 20.8061 25.3593 22.036C25.1827 22.7146 24.6622 23.249 24.0013 23.4305C22.8035 23.76 18.0003 23.76 18.0003 23.76C18.0003 23.76 13.1971 23.76 11.9993 23.4305C11.3383 23.249 10.8179 22.7146 10.6412 22.036C10.3203 20.8061 10.3203 18.24 10.3203 18.24C10.3203 18.24 10.3203 15.6738 10.6412 14.4439C10.8179 13.7653 11.3383 13.2309 11.9993 13.0496C13.1971 12.72 18.0003 12.72 18.0003 12.72C18.0003 12.72 22.8035 12.72 24.0013 13.0496ZM16.5603 16.0802V20.8802L20.4003 18.4803L16.5603 16.0802Z"
                fill-opacity="0.8" />
        </symbol>

        <symbol viewBox="0 0 36 36" id="ok" xmlns="http://www.w3.org/2000/svg">
            <path
                d="M19.919 22.2622L22.5725 24.8238C23.116 25.3474 23.116 26.1978 22.5725 26.722C22.0294 27.2462 21.1493 27.2462 20.6069 26.722L17.998 24.2048L15.3914 26.722C15.1196 26.9838 14.7635 27.1149 14.4074 27.1149C14.0518 27.1149 13.6962 26.9838 13.4244 26.722C12.8814 26.1978 12.8814 25.348 13.4238 24.8238L16.0776 22.2622C15.1114 22.0497 14.1796 21.6802 13.3213 21.1604C12.6718 20.7651 12.4767 19.9369 12.8859 19.3094C13.2941 18.681 14.1523 18.4919 14.803 18.8872C16.7461 20.0671 19.2493 20.0674 21.1936 18.8872C21.8443 18.4919 22.7023 18.681 23.1112 19.3094C23.5205 19.9364 23.3248 20.7651 22.6753 21.1604C21.817 21.6807 20.8852 22.0497 19.919 22.2622Z"
                fill-opacity="0.8" />
            <path fill-rule="evenodd" clip-rule="evenodd"
                d="M13.2402 13.9419C13.2402 16.4679 15.3691 18.5226 17.9868 18.5226C20.605 18.5226 22.7333 16.4679 22.7333 13.9419C22.7333 11.4151 20.605 9.35986 17.9868 9.35986C15.3691 9.35986 13.2402 11.4151 13.2402 13.9419ZM19.952 13.9414C19.952 12.8953 19.0705 12.0446 17.9867 12.0446C16.9038 12.0446 16.0214 12.8953 16.0214 13.9414C16.0214 14.9868 16.9038 15.838 17.9867 15.838C19.0705 15.838 19.952 14.9868 19.952 13.9414Z"
                fill-opacity="0.8" />
        </symbol>

        <symbol viewBox="0 0 36 36" id="twitter" xmlns="http://www.w3.org/2000/svg">
            <path
                d="M8.60008 17.8588C10.2834 16.9315 12.1625 16.1576 13.9182 15.3798C16.9388 14.1058 19.9713 12.8538 23.0344 11.6882C23.6304 11.4896 24.7012 11.2954 24.8062 12.1786C24.7487 13.4288 24.5122 14.6716 24.35 15.9145C23.9382 18.6476 23.4623 21.3713 22.9982 24.0955C22.8383 25.0028 21.7016 25.4726 20.9742 24.8919C19.2263 23.7112 17.465 22.5421 15.7394 21.334C15.1741 20.7596 15.6983 19.9348 16.2031 19.5247C17.6427 18.1059 19.1695 16.9005 20.5339 15.4084C20.9019 14.5196 19.8145 15.2687 19.4558 15.4982C17.4849 16.8563 15.5623 18.2974 13.4844 19.4911C12.423 20.0753 11.1859 19.576 10.125 19.25C9.17372 18.8561 7.77979 18.4594 8.59999 17.8588L8.60008 17.8588Z"
                fill-opacity="0.8" />
        </symbol>

        <symbol viewBox="0 0 24 24" id="chapter" xmlns="http://www.w3.org/2000/svg">
            <path
                d="M10.8284 12.0007L15.7782 16.9504L14.364 18.3646L8 12.0007L14.364 5.63672L15.7782 7.05093L10.8284 12.0007Z" />
        </symbol>

        <symbol viewBox="0 0 24 24" id="loader" xmlns="http://www.w3.org/2000/svg">
            <path
                d="M18.364 5.63604L16.9497 7.05025C15.683 5.7835 13.933 5 12 5C8.13401 5 5 8.13401 5 12C5 15.866 8.13401 19 12 19C15.866 19 19 15.866 19 12H21C21 16.9706 16.9706 21 12 21C7.02944 21 3 16.9706 3 12C3 7.02944 7.02944 3 12 3C14.4853 3 16.7353 4.00736 18.364 5.63604Z" />
        </symbol>

        <symbol viewBox="0 0 24 24" id="play" xmlns="http://www.w3.org/2000/svg">
            <path
                d="M6 20.1957V3.80421C6 3.01878 6.86395 2.53993 7.53 2.95621L20.6432 11.152C21.2699 11.5436 21.2699 12.4563 20.6432 12.848L7.53 21.0437C6.86395 21.46 6 20.9812 6 20.1957Z" />
        </symbol>

        <symbol viewBox="0 0 24 24" id="pause" xmlns="http://www.w3.org/2000/svg">
            <path d="M6 3H8V21H6V3ZM16 3H18V21H16V3Z" />
        </symbol>

		 <symbol viewBox="0 0 24 24" id="default" xmlns="http://www.w3.org/2000/svg">
        </symbol>

    </svg>